<?xml version="1.0" encoding="utf-8"?>
<!-- Generator: Adobe Illustrator 26.5.0, SVG Export Plug-In . SVG Version: 6.00 Build 0)  -->
<svg version="1.1" id="Layer_1" xmlns="http://www.w3.org/2000/svg" xmlns:xlink="http://www.w3.org/1999/xlink" x="0px" y="0px"
	 viewBox="0 0 253.5 73" style="enable-background:new 0 0 253.5 73;" xml:space="preserve">
<style type="text/css">
	.st0{fill:#ED1F24;}
	.st1{fill:#FFFFFF;}
	.st2{fill:#494949;}
</style>
<g>
	<path class="st0" d="M214.7,4.6c-2.1,0.4-6.1,0.5-6.1,0.5c1.5,2.7,10.5,25.1,11.5,31.1c1.1,7.3-12.6,13.5-8.3,24
		c4.4,10.5,6.8,12.8,23.7,8c16.8-4.8,16.3-17.8,9.8-26.6c-6.5-8.8-15.9-5.5-17.8-8s-6-23.2-6.5-30.8C221,2.9,217,4.1,214.7,4.6z"/>
	<path class="st1" d="M235.5,44.4c0.5,2.2-0.8,4.5-3.1,5.1c-2.2,0.5-4.5-0.8-5.1-3.1s0.8-4.5,3.1-5.1
		C232.7,40.9,235,42.2,235.5,44.4z"/>
	<path class="st1" d="M228.1,57.1c0.5,2.2-0.8,4.5-3.1,5.1c-2.2,0.5-4.5-0.8-5.1-3.1c-0.5-2.2,0.8-4.5,3.1-5.1
		C225.3,53.5,227.5,54.9,228.1,57.1z"/>
	<path class="st1" d="M241.2,53.9c0.5,2.2-0.8,4.5-3.1,5.1c-2.2,0.5-4.5-0.8-5.1-3.1c-0.5-2.2,0.8-4.5,3.1-5.1
		C238.4,50.2,240.7,51.6,241.2,53.9z"/>
</g>
<g>
	<path class="st0" d="M25.4,54.2H9.3v16.1H6.4V35.8h21.4v2.5H9.3v13.4h16.1V54.2z"/>
	<path class="st0" d="M41.8,47.1c-0.6-0.1-1.2-0.2-1.9-0.2c-1.8,0-3.3,0.5-4.5,1.5c-1.2,1-2.1,2.4-2.6,4.3v17.6H30V44.7h2.8l0,4.1
		c1.5-3,3.9-4.6,7.2-4.6c0.8,0,1.4,0.1,1.9,0.3L41.8,47.1z"/>
	<path class="st0" d="M41.8,57.1c0-2.5,0.5-4.7,1.4-6.7c1-2,2.3-3.5,4.1-4.6c1.7-1.1,3.7-1.6,5.9-1.6c3.4,0,6.2,1.2,8.3,3.6
		s3.2,5.6,3.2,9.5v0.6c0,2.5-0.5,4.7-1.4,6.7c-1,2-2.3,3.5-4,4.6c-1.7,1.1-3.7,1.6-6,1.6c-3.4,0-6.2-1.2-8.3-3.6
		c-2.1-2.4-3.2-5.6-3.2-9.5V57.1z M44.7,57.9c0,3.1,0.8,5.6,2.4,7.6c1.6,2,3.7,3,6.2,3c2.6,0,4.6-1,6.2-3c1.6-2,2.4-4.6,2.4-7.8
		v-0.5c0-2-0.4-3.8-1.1-5.4c-0.7-1.6-1.7-2.9-3.1-3.8c-1.3-0.9-2.8-1.3-4.5-1.3c-2.5,0-4.6,1-6.2,3c-1.6,2-2.4,4.6-2.4,7.8V57.9z"/>
	<path class="st0" d="M70.9,44.7l0.1,4.4c1-1.6,2.2-2.8,3.6-3.6s3-1.2,4.8-1.2c2.8,0,4.8,0.8,6.1,2.3c1.3,1.5,2,3.9,2,7v16.8h-2.8
		V53.5c0-2.3-0.5-4-1.5-5.1c-1-1.1-2.5-1.7-4.6-1.7c-1.8,0-3.3,0.5-4.7,1.6s-2.4,2.6-3,4.4v17.6h-2.8V44.7H70.9z"/>
	<path class="st0" d="M96.8,38.1v6.6h5.3V47h-5.3v17.1c0,1.4,0.3,2.5,0.8,3.2c0.5,0.7,1.4,1,2.6,1c0.5,0,1.2-0.1,2.3-0.2l0.1,2.3
		c-0.7,0.3-1.8,0.4-3,0.4c-1.9,0-3.4-0.6-4.2-1.7c-0.9-1.1-1.3-2.8-1.3-5V47h-4.7v-2.3H94v-6.6H96.8z"/>
	<path class="st0" d="M134.7,53.8h-16.1v14.1h18.6v2.5h-21.5V35.8H137v2.5h-18.4v13h16.1V53.8z"/>
	<path class="st0" d="M142.9,44.7l0.1,4.4c1-1.6,2.2-2.8,3.6-3.6s3-1.2,4.8-1.2c2.8,0,4.8,0.8,6.1,2.3c1.3,1.5,2,3.9,2,7v16.8h-2.8
		V53.5c0-2.3-0.5-4-1.5-5.1c-1-1.1-2.5-1.7-4.6-1.7c-1.8,0-3.3,0.5-4.7,1.6s-2.4,2.6-3,4.4v17.6h-2.8V44.7H142.9z"/>
	<path class="st0" d="M163.3,57.3c0-4,0.9-7.2,2.7-9.5c1.8-2.4,4.2-3.5,7.2-3.5c3.5,0,6.1,1.4,7.9,4.1V33.9h2.8v36.4h-2.7l-0.1-3.4
		c-1.8,2.6-4.5,3.9-8,3.9c-3,0-5.3-1.2-7.1-3.6c-1.8-2.4-2.7-5.6-2.7-9.6V57.3z M166.1,57.8c0,3.3,0.7,5.9,2,7.7
		c1.3,1.9,3.2,2.8,5.5,2.8c3.5,0,6-1.5,7.4-4.6v-12c-1.5-3.3-3.9-5-7.4-5c-2.4,0-4.2,0.9-5.6,2.8C166.8,51.4,166.1,54.1,166.1,57.8z
		"/>
</g>
<g>
	<path class="st2" d="M20.2,6h-8.3v23.1H8.4V6H0.1V3.2h20V6z"/>
	<path class="st2" d="M19,19.3c0-1.9,0.4-3.6,1.1-5.1s1.8-2.7,3.1-3.5c1.3-0.8,2.8-1.2,4.5-1.2c2.6,0,4.7,0.9,6.4,2.7
		c1.6,1.8,2.4,4.2,2.4,7.2v0.2c0,1.9-0.4,3.6-1.1,5s-1.7,2.6-3.1,3.5s-2.9,1.2-4.6,1.2c-2.6,0-4.7-0.9-6.3-2.7
		c-1.6-1.8-2.4-4.2-2.4-7.2V19.3z M22.4,19.7c0,2.1,0.5,3.9,1.5,5.1c1,1.3,2.3,1.9,4,1.9c1.7,0,3-0.7,4-2c1-1.3,1.5-3.1,1.5-5.5
		c0-2.1-0.5-3.8-1.5-5.1c-1-1.3-2.3-2-4-2c-1.6,0-2.9,0.6-3.9,1.9S22.4,17.3,22.4,19.7z"/>
	<path class="st2" d="M38.1,19.3c0-3,0.7-5.3,2.1-7.1c1.4-1.8,3.2-2.7,5.5-2.7c2.3,0,4,0.8,5.4,2.3v-10h3.3v27.3h-3l-0.2-2.1
		c-1.3,1.6-3.2,2.4-5.5,2.4c-2.2,0-4.1-0.9-5.5-2.7c-1.4-1.8-2.1-4.2-2.1-7.2V19.3z M41.4,19.7c0,2.2,0.5,3.9,1.4,5.1
		c0.9,1.2,2.1,1.9,3.7,1.9c2.1,0,3.6-0.9,4.6-2.8V15c-1-1.8-2.5-2.7-4.5-2.7c-1.6,0-2.9,0.6-3.8,1.9C41.8,15.4,41.4,17.3,41.4,19.7z
		"/>
	<path class="st2" d="M56.8,19.3c0-3,0.7-5.3,2.1-7.1c1.4-1.8,3.2-2.7,5.5-2.7c2.3,0,4,0.8,5.4,2.3v-10h3.3v27.3h-3l-0.2-2.1
		c-1.3,1.6-3.2,2.4-5.5,2.4c-2.2,0-4.1-0.9-5.5-2.7c-1.4-1.8-2.1-4.2-2.1-7.2V19.3z M60.1,19.7c0,2.2,0.5,3.9,1.4,5.1
		c0.9,1.2,2.1,1.9,3.7,1.9c2.1,0,3.6-0.9,4.6-2.8V15c-1-1.8-2.5-2.7-4.5-2.7c-1.6,0-2.9,0.6-3.8,1.9C60.6,15.4,60.1,17.3,60.1,19.7z
		"/>
	<path class="st2" d="M84.1,29.1V3.2h7.3c2.3,0,4.2,0.5,6,1.5c1.7,1,3.1,2.4,4,4.3s1.4,4,1.4,6.3V17c0,2.4-0.5,4.6-1.4,6.4
		c-0.9,1.8-2.3,3.3-4,4.2c-1.8,1-3.8,1.5-6.1,1.5H84.1z M87.5,6v20.3h3.6c2.6,0,4.7-0.8,6.2-2.5c1.5-1.6,2.2-4,2.2-7v-1.5
		c0-2.9-0.7-5.2-2.1-6.9S94,6,91.5,6H87.5z"/>
	<path class="st2" d="M117.6,27.2c-1.3,1.5-3.2,2.3-5.6,2.3c-2.1,0-3.6-0.6-4.7-1.8c-1.1-1.2-1.6-3-1.6-5.3V9.9h3.3v12.4
		c0,2.9,1.2,4.4,3.6,4.4c2.5,0,4.2-0.9,5-2.8v-14h3.3v19.3h-3.1L117.6,27.2z"/>
	<path class="st2" d="M127.1,9.9l0.1,2.4c1.5-1.9,3.4-2.8,5.8-2.8c4.1,0,6.1,2.3,6.2,6.9v12.7h-3.3V16.4c0-1.4-0.3-2.4-1-3.1
		c-0.6-0.7-1.6-1-2.9-1c-1.1,0-2,0.3-2.8,0.9s-1.4,1.3-1.9,2.2v13.7h-3.3V9.9H127.1z"/>
	<path class="st2" d="M145.4,9.9l0.1,2.4c1.5-1.9,3.4-2.8,5.8-2.8c4.1,0,6.1,2.3,6.2,6.9v12.7h-3.3V16.4c0-1.4-0.3-2.4-1-3.1
		c-0.6-0.7-1.6-1-2.9-1c-1.1,0-2,0.3-2.8,0.9c-0.8,0.6-1.4,1.3-1.9,2.2v13.7h-3.3V9.9H145.4z"/>
	<path class="st2" d="M160.6,4.8c0-0.5,0.2-1,0.5-1.4s0.8-0.6,1.5-0.6c0.6,0,1.1,0.2,1.5,0.6s0.5,0.8,0.5,1.4s-0.2,1-0.5,1.3
		s-0.8,0.5-1.5,0.5c-0.6,0-1.1-0.2-1.5-0.5S160.6,5.3,160.6,4.8z M164.1,29.1h-3.3V9.9h3.3V29.1z"/>
	<path class="st2" d="M170.7,9.9l0.1,2.4c1.5-1.9,3.4-2.8,5.8-2.8c4.1,0,6.1,2.3,6.2,6.9v12.7h-3.3V16.4c0-1.4-0.3-2.4-1-3.1
		c-0.6-0.7-1.6-1-2.9-1c-1.1,0-2,0.3-2.8,0.9c-0.8,0.6-1.4,1.3-1.9,2.2v13.7h-3.3V9.9H170.7z"/>
	<path class="st2" d="M185.1,19.3c0-3,0.7-5.4,2.1-7.2c1.4-1.8,3.2-2.7,5.5-2.7c2.3,0,4.2,0.8,5.5,2.5l0.2-2.1h3v18.8
		c0,2.5-0.7,4.5-2.2,5.9c-1.5,1.4-3.5,2.2-6,2.2c-1.4,0-2.7-0.3-4.1-0.9c-1.3-0.6-2.3-1.4-3-2.4l1.7-2c1.4,1.7,3.1,2.6,5.2,2.6
		c1.6,0,2.9-0.5,3.7-1.4c0.9-0.9,1.3-2.2,1.3-3.8v-1.7c-1.3,1.5-3.1,2.3-5.4,2.3c-2.3,0-4.1-0.9-5.5-2.7
		C185.8,24.9,185.1,22.5,185.1,19.3z M188.4,19.7c0,2.2,0.4,3.9,1.3,5.1s2.1,1.9,3.7,1.9c2.1,0,3.6-0.9,4.6-2.8v-8.8
		c-1-1.8-2.5-2.8-4.5-2.8c-1.6,0-2.9,0.6-3.8,1.9C188.8,15.4,188.4,17.3,188.4,19.7z"/>
</g>
</svg>
