<?xml version="1.0" encoding="utf-8"?>
<!-- Generator: Adobe Illustrator 19.1.0, SVG Export Plug-In . SVG Version: 6.00 Build 0)  -->
<svg version="1.1"
	 xmlns:x="extend;" xmlns:i="ai;" xmlns:graph="graphs;" i:viewOrigin="132.5156 -132.6719" i:rulerOrigin="-132.5156 234.2344" i:pageBounds="132.5156 -132.6719 386.0312 -234.2344"
	 xmlns="http://www.w3.org/2000/svg" xmlns:xlink="http://www.w3.org/1999/xlink" xmlns:a="http://ns.adobe.com/AdobeSVGViewerExtensions/3.0/"
	 x="0px" y="0px" viewBox="0 0 253.5 101.6" enable-background="new 0 0 253.5 101.6" xml:space="preserve">
<metadata>
	<variableSets  xmlns="vars;">
		<variableSet  varSetName="binding1" locked="none">
			<variables></variables>
			<v:sampleDataSets  xmlns="custom;" xmlns:v="vars;"></v:sampleDataSets>
		</variableSet>
	</variableSets>
</metadata>
<g id="Layer_1" i:layer="yes" i:dimmedPercent="50" i:rgbTrio="#4F008000FFFF">
	<g>
		<path i:knockout="Off" fill="#ED1F24" d="M209.4,9.8c-2.5,0.5-7.4,0.6-7.4,0.6c1.8,3.3,12.7,30.3,13.8,37.5
			c1.3,8.8-15.2,16.3-10,28.9c5.3,12.7,8.2,15.4,28.5,9.6c20.3-5.8,19.6-21.4,11.8-32c-7.8-10.6-19.2-6.6-21.4-9.6
			c-2.2-3-7.2-28-7.8-37.1C217,7.7,212.1,9.2,209.4,9.8z"/>
		<path i:knockout="Off" fill="#FFFFFF" d="M234.4,57.8c0.6,2.7-1,5.4-3.7,6.1c-2.7,0.6-5.4-1-6.1-3.7c-0.7-2.7,1-5.4,3.7-6.1
			C231,53.5,233.8,55.1,234.4,57.8z"/>
		<path i:knockout="Off" fill="#FFFFFF" d="M225.5,73.1c0.6,2.7-1,5.4-3.7,6.1c-2.7,0.6-5.4-1-6.1-3.7c-0.6-2.7,1-5.4,3.7-6.1
			C222.1,68.7,224.8,70.4,225.5,73.1z"/>
		<path i:knockout="Off" fill="#FFFFFF" d="M241.3,69.2c0.6,2.7-1,5.4-3.7,6.1c-2.7,0.6-5.4-1-6.1-3.7c-0.6-2.7,1-5.4,3.7-6.1
			C237.9,64.8,240.7,66.5,241.3,69.2z"/>
	</g>
	<g i:knockout="Off">
		<path i:knockout="Off" fill="#BCBEC0" d="M2.1,48.5V5.4h13.2c5.6,0,10.2,1.7,13.6,5.2C32.3,14.1,34,18.5,34,24v5.9
			c0,5.5-1.7,10-5.1,13.4c-3.4,3.4-7.9,5.2-13.6,5.2H2.1z M7.9,10v33.9h7.4c4,0,7.1-1.3,9.4-3.9c2.3-2.6,3.4-6,3.4-10.1V24
			c0-4.1-1.2-7.4-3.4-10c-2.3-2.6-5.4-3.9-9.4-3.9H7.9z"/>
		<path i:knockout="Off" fill="#BCBEC0" d="M56.7,43.8c-1,1.7-2.3,3-3.9,4c-1.6,0.9-3.4,1.4-5.5,1.4c-3.5,0-6.2-1.1-8.2-3.3
			c-2-2.2-2.9-5.7-2.9-10.4V16.5h5.8v18.9c0,3.4,0.5,5.8,1.5,7c1,1.3,2.6,1.9,4.7,1.9c2.1,0,3.8-0.4,5.1-1.3c1.4-0.8,2.4-2,3.1-3.6
			V16.5h5.8v32h-5.2L56.7,43.8z"/>
		<path i:knockout="Off" fill="#BCBEC0" d="M71.5,16.5l0.4,4.8c1.1-1.7,2.4-3,4-4c1.6-0.9,3.4-1.4,5.5-1.4c3.5,0,6.1,1,8,3
			c1.9,2,2.8,5.1,2.8,9.4v20.2h-5.8V28.4c0-2.8-0.6-4.8-1.7-6c-1.1-1.2-2.8-1.8-5.1-1.8c-1.7,0-3.2,0.4-4.5,1.2
			c-1.3,0.8-2.3,1.9-3.1,3.3v23.4h-5.8v-32H71.5z"/>
		<path i:knockout="Off" fill="#BCBEC0" d="M101.4,16.5l0.4,4.8c1.1-1.7,2.4-3,4-4c1.6-0.9,3.4-1.4,5.5-1.4c3.5,0,6.1,1,8,3
			c1.9,2,2.8,5.1,2.8,9.4v20.2h-5.8V28.4c0-2.8-0.6-4.8-1.7-6c-1.1-1.2-2.8-1.8-5.1-1.8c-1.7,0-3.2,0.4-4.5,1.2
			c-1.3,0.8-2.3,1.9-3.1,3.3v23.4h-5.8v-32H101.4z"/>
		<path i:knockout="Off" fill="#BCBEC0" d="M132.4,8.3h-5.8v-6h5.8V8.3z M132.4,48.5h-5.8v-32h5.8V48.5z"/>
		<path i:knockout="Off" fill="#BCBEC0" d="M142.1,16.5l0.4,4.8c1.1-1.7,2.4-3,4-4c1.6-0.9,3.4-1.4,5.5-1.4c3.5,0,6.1,1,8,3
			s2.8,5.1,2.8,9.4v20.2H157V28.4c0-2.8-0.6-4.8-1.7-6c-1.1-1.2-2.8-1.8-5.1-1.8c-1.7,0-3.2,0.4-4.5,1.2c-1.3,0.8-2.3,1.9-3.1,3.3
			v23.4h-5.8v-32H142.1z"/>
		<path i:knockout="Off" fill="#BCBEC0" d="M165.5,33.1c0-5.2,1.1-9.3,3.4-12.5c2.2-3.2,5.4-4.7,9.3-4.7c2,0,3.8,0.4,5.4,1.2
			c1.5,0.8,2.8,2,3.8,3.5l0.7-4.2h4.6v32.2c0,4.1-1.2,7.3-3.6,9.5s-5.8,3.3-10.3,3.3c-1.5,0-3.2-0.2-5-0.6c-1.8-0.4-3.4-1-4.7-1.7
			l1.5-4.5c1,0.6,2.3,1.1,3.8,1.4c1.5,0.4,2.9,0.5,4.4,0.5c2.8,0,4.9-0.6,6.2-1.9c1.3-1.3,1.9-3.3,1.9-5.9v-3.6
			c-1,1.3-2.3,2.4-3.8,3c-1.5,0.7-3.1,1-5,1c-3.9,0-7-1.4-9.3-4.3c-2.2-2.8-3.4-6.6-3.4-11.2V33.1z M171.3,33.7c0,3.2,0.7,5.8,2,7.8
			c1.4,2,3.4,2.9,6.2,2.9c1.8,0,3.2-0.4,4.4-1.2c1.2-0.8,2.2-1.9,2.9-3.4V25.1c-0.8-1.4-1.7-2.4-2.9-3.2c-1.2-0.8-2.7-1.2-4.4-1.2
			c-2.8,0-4.9,1.2-6.2,3.5s-2.1,5.3-2.1,9V33.7z"/>
	</g>
	<g i:knockout="Off">
		<g>
			<path i:knockout="Off" fill="#ED1F24" d="M8.8,55.8l10.8,27.5h0.1l10.8-27.5h5.9v33.9h-4.6V76.3l0.5-13.8l-0.1,0l-11,27.2h-3
				L7.2,62.6l-0.1,0l0.4,13.7v13.4H3V55.8H8.8z"/>
			<path i:knockout="Off" fill="#ED1F24" d="M57.1,89.7c-0.2-0.8-0.3-1.4-0.4-2c-0.1-0.6-0.1-1.2-0.2-1.8c-0.9,1.2-2,2.2-3.3,3
				c-1.4,0.8-2.9,1.2-4.4,1.2c-2.6,0-4.6-0.7-6-2s-2.1-3.2-2.1-5.6c0-2.4,1-4.3,2.9-5.6c1.9-1.4,4.6-2,7.9-2h5v-2.5
				c0-1.5-0.5-2.6-1.4-3.5s-2.2-1.3-3.8-1.3c-1.5,0-2.7,0.4-3.6,1.1s-1.4,1.7-1.4,2.7h-4.4l0-0.1c-0.1-1.8,0.8-3.5,2.6-5
				c1.8-1.5,4.2-2.3,7.1-2.3c2.9,0,5.2,0.7,6.9,2.2s2.6,3.5,2.6,6.3v12.1c0,0.9,0,1.8,0.1,2.6c0.1,0.8,0.3,1.7,0.5,2.5H57.1z
				 M49.5,86.3c1.7,0,3.2-0.4,4.5-1.3c1.3-0.9,2.2-1.8,2.6-2.9V78h-5.1c-1.8,0-3.3,0.5-4.4,1.4c-1.1,0.9-1.7,2-1.7,3.3
				c0,1.1,0.3,2,1,2.6C47.1,86,48.1,86.3,49.5,86.3z"/>
			<path i:knockout="Off" fill="#ED1F24" d="M77.4,68.6L75,68.4c-1.2,0-2.2,0.3-3.1,0.9c-0.8,0.6-1.5,1.4-1.9,2.4v18h-4.6V64.5h4.1
				l0.4,3.7c0.7-1.3,1.6-2.3,2.6-3c1-0.7,2.3-1.1,3.6-1.1c0.3,0,0.7,0,1,0.1s0.6,0.1,0.8,0.2L77.4,68.6z"/>
			<path i:knockout="Off" fill="#ED1F24" d="M87,78h-3v11.7h-4.6V53.4H84v21h2.9l6.9-9.9h5.5L90.7,76l9.8,13.8h-5.4L87,78z"/>
			<path i:knockout="Off" fill="#ED1F24" d="M111.4,90.2c-3.5,0-6.3-1.2-8.4-3.5c-2.1-2.3-3.1-5.4-3.1-9.1v-1c0-3.6,1.1-6.6,3.2-9
				c2.1-2.4,4.7-3.6,7.6-3.6c3.4,0,6,1,7.7,3.1c1.7,2,2.6,4.8,2.6,8.2v2.9h-16.3l-0.1,0.1c0,2.4,0.7,4.4,1.8,6
				c1.2,1.6,2.8,2.3,5,2.3c1.6,0,2.9-0.2,4.1-0.7s2.2-1.1,3-1.8l1.8,3c-0.9,0.9-2.1,1.6-3.6,2.2S113.5,90.2,111.4,90.2z M110.7,67.7
				c-1.5,0-2.8,0.6-3.9,1.9c-1.1,1.3-1.8,2.9-2,4.9l0,0.1h11.6V74c0-1.8-0.5-3.3-1.4-4.5C114.1,68.3,112.6,67.7,110.7,67.7z"/>
			<path i:knockout="Off" fill="#ED1F24" d="M129.9,58.5v6.1h4.8v3.4h-4.8v15.3c0,1.2,0.2,2,0.7,2.5c0.5,0.5,1.1,0.7,1.9,0.7
				c0.3,0,0.6,0,0.9-0.1c0.3-0.1,0.6-0.1,0.8-0.2l0.6,3.1c-0.3,0.3-0.8,0.5-1.5,0.7c-0.7,0.2-1.3,0.3-2,0.3c-1.9,0-3.3-0.6-4.4-1.7
				c-1.1-1.1-1.7-2.9-1.7-5.3V67.9h-4v-3.4h4v-6.1H129.9z"/>
			<path i:knockout="Off" fill="#ED1F24" d="M142.9,58.1h-4.6v-4.7h4.6V58.1z M142.9,89.7h-4.6V64.5h4.6V89.7z"/>
			<path i:knockout="Off" fill="#ED1F24" d="M151.6,64.5l0.3,3.7c0.8-1.3,1.9-2.4,3.2-3.1c1.3-0.7,2.7-1.1,4.3-1.1
				c2.7,0,4.8,0.8,6.3,2.4c1.5,1.6,2.2,4,2.2,7.4v15.9h-4.6V73.9c0-2.2-0.4-3.8-1.3-4.7c-0.9-0.9-2.2-1.4-4-1.4
				c-1.3,0-2.5,0.3-3.5,1c-1,0.6-1.8,1.5-2.4,2.6v18.4h-4.6V64.5H151.6z"/>
			<path i:knockout="Off" fill="#ED1F24" d="M171.2,77.6c0-4.1,0.9-7.3,2.7-9.8c1.8-2.5,4.2-3.7,7.3-3.7c1.6,0,3,0.3,4.2,1
				c1.2,0.6,2.2,1.6,3,2.8l0.6-3.3h3.7v25.3c0,3.2-0.9,5.7-2.8,7.4c-1.9,1.7-4.6,2.6-8.1,2.6c-1.2,0-2.5-0.2-3.9-0.5
				c-1.4-0.3-2.6-0.8-3.7-1.4l1.2-3.6c0.8,0.5,1.8,0.8,3,1.1s2.3,0.4,3.4,0.4c2.2,0,3.9-0.5,4.9-1.5s1.5-2.6,1.5-4.6V87
				c-0.8,1.1-1.8,1.9-3,2.4s-2.5,0.8-4,0.8c-3.1,0-5.5-1.1-7.3-3.4c-1.8-2.2-2.7-5.2-2.7-8.8V77.6z M175.8,78.1
				c0,2.5,0.5,4.6,1.6,6.1c1.1,1.5,2.7,2.3,4.9,2.3c1.4,0,2.5-0.3,3.5-0.9c0.9-0.6,1.7-1.5,2.3-2.7V71.3c-0.6-1.1-1.4-1.9-2.3-2.5
				c-0.9-0.6-2.1-0.9-3.4-0.9c-2.2,0-3.8,0.9-4.9,2.7c-1.1,1.8-1.6,4.2-1.6,7.1V78.1z"/>
		</g>
	</g>
</g>
</svg>
