<?xml version="1.0" encoding="utf-8"?>
<!-- Generator: Adobe Illustrator 19.1.0, SVG Export Plug-In . SVG Version: 6.00 Build 0)  -->
<svg version="1.1"
	 xmlns:x="extend;" xmlns:i="ai;" xmlns:graph="graphs;" i:viewOrigin="0 0" i:rulerOrigin="0 107.7087" i:pageBounds="0 0 562.9528 -107.7087"
	 xmlns="http://www.w3.org/2000/svg" xmlns:xlink="http://www.w3.org/1999/xlink" xmlns:a="http://ns.adobe.com/AdobeSVGViewerExtensions/3.0/"
	 x="0px" y="0px" viewBox="0 0 563 107.7" enable-background="new 0 0 563 107.7" xml:space="preserve">
<metadata>
	<variableSets  xmlns="vars;">
		<variableSet  varSetName="binding1" locked="none">
			<variables></variables>
			<v:sampleDataSets  xmlns="custom;" xmlns:v="vars;"></v:sampleDataSets>
		</variableSet>
	</variableSets>
</metadata>
<g id="Layer_1" i:layer="yes" i:dimmedPercent="50" i:rgbTrio="#4F008000FFFF">
	<g i:knockout="Off">
		<path i:knockout="Off" fill="#FFFFFF" d="M53.1,37.9c0,7.6-2.6,13.5-7.8,17.6c-5.2,4.1-12.6,6.2-22.3,6.2h-8.9v29.6H5.3V16h19.5
			C43.7,16,53.1,23.3,53.1,37.9z M14.1,54.2H22c7.8,0,13.4-1.3,16.8-3.8c3.5-2.5,5.2-6.5,5.2-12c0-5-1.6-8.7-4.9-11.1
			c-3.3-2.4-8.3-3.7-15.2-3.7h-9.8V54.2z"/>
		<path i:knockout="Off" fill="#FFFFFF" d="M134.1,53.5c0,12-3,21.5-9.1,28.4c-6.1,6.9-14.6,10.3-25.4,10.3
			c-11.1,0-19.6-3.4-25.7-10.2c-6-6.8-9-16.3-9-28.7c0-12.3,3-21.7,9.1-28.5c6-6.7,14.6-10.1,25.7-10.1c10.8,0,19.3,3.4,25.3,10.3
			C131.1,32,134.1,41.5,134.1,53.5z M74.2,53.5c0,10.2,2.2,17.9,6.5,23.2c4.3,5.3,10.6,7.9,18.9,7.9c8.3,0,14.6-2.6,18.9-7.9
			c4.3-5.3,6.4-13,6.4-23.2c0-10.1-2.1-17.8-6.4-23c-4.2-5.2-10.5-7.8-18.8-7.8c-8.3,0-14.7,2.6-19,7.9
			C76.3,35.8,74.2,43.5,74.2,53.5z"/>
		<path i:knockout="Off" fill="#FFFFFF" d="M159.7,60v31.3h-8.8V16h20.6c9.2,0,16.1,1.8,20.5,5.3c4.4,3.5,6.6,8.9,6.6,16
			c0,10-5,16.7-15.1,20.2l20.4,33.8h-10.3L175.4,60H159.7z M159.7,52.5h12c6.2,0,10.7-1.2,13.6-3.7c2.9-2.5,4.3-6.1,4.3-11
			c0-5-1.5-8.6-4.4-10.8c-2.9-2.2-7.6-3.3-14.1-3.3h-11.4V52.5z"/>
		<path i:knockout="Off" fill="#FFFFFF" d="M239.2,91.3h-8.8V23.8h-23.8V16h56.4v7.8h-23.8V91.3z"/>
		<path i:knockout="Off" fill="#FFFFFF" d="M283.1,91.3h-8.8V16h42v7.8h-33.2v27.5h31.2v7.8h-31.2V91.3z"/>
		<path i:knockout="Off" fill="#FFFFFF" d="M394.1,53.5c0,12-3,21.5-9.1,28.4c-6.1,6.9-14.6,10.3-25.4,10.3
			c-11.1,0-19.6-3.4-25.7-10.2c-6-6.8-9-16.3-9-28.7c0-12.3,3-21.7,9.1-28.5c6-6.7,14.6-10.1,25.7-10.1c10.8,0,19.3,3.4,25.3,10.3
			S394.1,41.5,394.1,53.5z M334.2,53.5c0,10.2,2.2,17.9,6.5,23.2c4.3,5.3,10.6,7.9,18.9,7.9c8.3,0,14.6-2.6,18.9-7.9
			c4.3-5.3,6.4-13,6.4-23.2c0-10.1-2.1-17.8-6.4-23c-4.2-5.2-10.5-7.8-18.8-7.8c-8.3,0-14.7,2.6-19,7.9
			C336.3,35.8,334.2,43.5,334.2,53.5z"/>
		<path i:knockout="Off" fill="#FFFFFF" d="M410.9,91.3V16h8.8v67.3h33.2v7.9H410.9z"/>
		<path i:knockout="Off" fill="#FFFFFF" d="M465.6,91.3V16h8.8v75.3H465.6z"/>
		<path i:knockout="Off" fill="#FFFFFF" d="M560.3,53.5c0,12-3,21.5-9.1,28.4c-6.1,6.9-14.6,10.3-25.4,10.3
			c-11.1,0-19.6-3.4-25.7-10.2c-6-6.8-9-16.3-9-28.7c0-12.3,3-21.7,9.1-28.5c6-6.7,14.6-10.1,25.7-10.1c10.8,0,19.3,3.4,25.3,10.3
			S560.3,41.5,560.3,53.5z M500.4,53.5c0,10.2,2.2,17.9,6.5,23.2c4.3,5.3,10.6,7.9,18.9,7.9c8.3,0,14.6-2.6,18.9-7.9
			c4.3-5.3,6.4-13,6.4-23.2c0-10.1-2.1-17.8-6.4-23c-4.2-5.2-10.5-7.8-18.8-7.8c-8.3,0-14.7,2.6-19,7.9
			C502.5,35.8,500.4,43.5,500.4,53.5z"/>
	</g>
</g>
</svg>
