<?xml version="1.0" encoding="utf-8"?>
<!-- Generator: Adobe Illustrator 19.1.0, SVG Export Plug-In . SVG Version: 6.00 Build 0)  -->
<svg version="1.1"
	 xmlns:x="extend;" xmlns:i="ai;" xmlns:graph="graphs;" i:viewOrigin="0 79" i:rulerOrigin="0 0" i:pageBounds="0 79 169 0"
	 xmlns="http://www.w3.org/2000/svg" xmlns:xlink="http://www.w3.org/1999/xlink" xmlns:a="http://ns.adobe.com/AdobeSVGViewerExtensions/3.0/"
	 x="0px" y="0px" viewBox="-221 357 169 79" enable-background="new -221 357 169 79" xml:space="preserve">
<metadata>
	<variableSets  xmlns="vars;">
		<variableSet  varSetName="binding1" locked="none">
			<variables></variables>
			<v:sampleDataSets  xmlns="custom;" xmlns:v="vars;"></v:sampleDataSets>
		</variableSet>
	</variableSets>
</metadata>
<g id="Layer_1" i:layer="yes" i:dimmedPercent="50" i:rgbTrio="#4F008000FFFF">
	<g i:isolated="yes" i:knockout="Off" enable-background="new    ">
		<path i:knockout="Off" fill="#9B9A9A" d="M-202.3,383.6c0-1.3-0.5-2.3-1.4-3.2c-1-0.9-2.7-1.6-5.1-2.2c-3-0.7-5.3-1.7-6.9-3.1
			c-1.7-1.4-2.5-3.1-2.5-5.2c0-2.2,0.9-4,2.7-5.5c1.8-1.5,4.1-2.2,6.9-2.2c3.1,0,5.5,0.8,7.3,2.5c1.8,1.7,2.7,3.6,2.6,5.8l0,0.1
			h-3.6c0-1.6-0.5-3-1.6-4c-1.1-1-2.6-1.5-4.7-1.5c-1.9,0-3.3,0.4-4.3,1.3c-1,0.9-1.5,2-1.5,3.3c0,1.2,0.5,2.2,1.6,3
			s2.9,1.5,5.3,2.1c2.9,0.7,5.2,1.8,6.7,3.2c1.5,1.4,2.3,3.2,2.3,5.3c0,2.3-0.9,4.1-2.8,5.4c-1.8,1.4-4.2,2.1-7.2,2.1
			c-2.8,0-5.3-0.8-7.4-2.3c-2.1-1.5-3.2-3.5-3.1-6.1l0-0.1h3.6c0,1.8,0.7,3.2,2,4.1c1.3,0.9,2.9,1.4,4.9,1.4c1.9,0,3.4-0.4,4.5-1.2
			C-202.9,386-202.3,384.9-202.3,383.6z"/>
		<path i:knockout="Off" fill="#9B9A9A" d="M-170.3,381.7l0,0.1c0.1,2.6-0.9,4.8-2.8,6.6s-4.4,2.7-7.5,2.7c-3.2,0-5.7-1.1-7.7-3.4
			s-3-5.1-3-8.5v-5c0-3.4,1-6.3,3-8.5c2-2.2,4.6-3.4,7.7-3.4c3.2,0,5.7,0.8,7.5,2.5c1.9,1.7,2.8,3.9,2.7,6.7l0,0.1h-3.6
			c0-2-0.6-3.5-1.7-4.6c-1.2-1.1-2.8-1.7-4.9-1.7c-2.1,0-3.8,0.8-5,2.5c-1.3,1.7-1.9,3.8-1.9,6.3v5c0,2.5,0.6,4.7,1.9,6.4
			c1.3,1.7,2.9,2.5,5,2.5c2.1,0,3.7-0.6,4.9-1.7c1.2-1.1,1.7-2.7,1.7-4.7H-170.3z"/>
		<path i:knockout="Off" fill="#9B9A9A" d="M-158.4,378.5v12.1h-3.8v-27.9h10.1c3.1,0,5.4,0.7,7,2c1.6,1.4,2.4,3.3,2.4,5.9
			c0,1.4-0.4,2.7-1.1,3.7c-0.7,1.1-1.8,1.9-3.3,2.5c1.5,0.5,2.6,1.3,3.3,2.4s1,2.5,1,4.2v2.6c0,0.9,0.1,1.7,0.3,2.3s0.5,1.3,1,1.7
			v0.5h-3.9c-0.5-0.4-0.8-1.1-1-1.9c-0.1-0.8-0.2-1.7-0.2-2.6v-2.6c0-1.5-0.4-2.7-1.3-3.6s-2.1-1.4-3.5-1.4H-158.4z M-158.4,375.5
			h5.9c2.1,0,3.7-0.4,4.6-1.2c0.9-0.8,1.4-2,1.4-3.7c0-1.6-0.5-2.8-1.4-3.6c-0.9-0.9-2.3-1.3-4.3-1.3h-6.3V375.5z"/>
		<path i:knockout="Off" fill="#9B9A9A" d="M-112,379.1c0,3.4-1.1,6.2-3.2,8.5c-2.1,2.3-4.9,3.4-8.2,3.4c-3.3,0-5.9-1.1-8-3.4
			c-2-2.3-3.1-5.1-3.1-8.5v-5c0-3.4,1-6.2,3.1-8.5c2-2.3,4.7-3.4,8-3.4c3.4,0,6.1,1.1,8.2,3.4c2.1,2.3,3.2,5.1,3.2,8.5V379.1z
			 M-115.8,374.1c0-2.6-0.7-4.7-2.1-6.3c-1.4-1.6-3.2-2.5-5.6-2.5c-2.2,0-4,0.8-5.3,2.5c-1.3,1.6-2,3.7-2,6.3v5c0,2.6,0.7,4.7,2,6.3
			c1.3,1.6,3.1,2.5,5.3,2.5c2.3,0,4.2-0.8,5.6-2.4c1.4-1.6,2.1-3.7,2.1-6.3V374.1z"/>
		<path i:knockout="Off" fill="#9B9A9A" d="M-99.6,387.6h13.2v3h-17v-27.9h3.8V387.6z"/>
		<path i:knockout="Off" fill="#9B9A9A" d="M-75.4,387.6h13.2v3h-17v-27.9h3.8V387.6z"/>
	</g>
	<polyline fill="#9B9A9A" points="-90.3,404.1 -140.3,431.2 -140.3,435.3 -90.3,408.1 -90.3,405.1 	"/>
	<polyline fill="#9B9A9A" points="-190.3,404.1 -140.3,431.2 -140.3,435.3 -190.3,408.1 -190.3,405.1 	"/>
</g>
</svg>
