<?xml version="1.0" encoding="utf-8"?>
<!-- Generator: Adobe Illustrator 15.1.0, SVG Export Plug-In . SVG Version: 6.00 Build 0)  -->
<!DOCTYPE svg PUBLIC "-//W3C//DTD SVG 1.1//EN" "http://www.w3.org/Graphics/SVG/1.1/DTD/svg11.dtd">
<svg version="1.1" id="Layer_1" xmlns="http://www.w3.org/2000/svg" xmlns:xlink="http://www.w3.org/1999/xlink" x="0px" y="0px"
	 width="576px" height="576px" viewBox="0 0 576 576" enable-background="new 0 0 576 576" xml:space="preserve">
<g>
	<g>
		<g>
			<g>
				<polygon fill="#FED402" points="288.8,-1 308.1,246.8 269.4,246.8 288.7,-1 				"/>
				<polygon fill="#FED402" points="288.8,575.8 308.1,328 269.4,328 288.7,575.8 				"/>
			</g>
			<g>
				<polygon fill="#FED402" points="0.3,287.4 248.2,268 248.2,306.8 0.3,287.5 				"/>
				<polygon fill="#FED402" points="577.2,287.4 329.3,268 329.3,306.8 577.2,287.5 				"/>
			</g>
		</g>
		<g>
			<g>
				<polygon fill="#FED402" points="144.6,37.6 285.2,242.6 251.7,262 144.5,37.7 				"/>
				<polygon fill="#FED402" points="433,537.2 325.8,312.9 292.3,332.2 432.9,537.2 				"/>
			</g>
			<g>
				<polygon fill="#FED402" points="39,431.6 243.9,290.9 263.3,324.5 39,431.7 				"/>
				<polygon fill="#FED402" points="538.5,143.2 314.2,250.3 333.6,283.9 538.5,143.2 				"/>
			</g>
		</g>
		<g>
			<g>
				<polygon fill="#FED402" points="39,143.2 263.3,250.3 243.9,283.9 39,143.2 				"/>
				<polygon fill="#FED402" points="538.5,431.6 333.6,290.9 314.2,324.5 538.5,431.7 				"/>
			</g>
			<g>
				<polygon fill="#FED402" points="144.5,537.1 251.7,312.9 285.2,332.2 144.6,537.2 				"/>
				<polygon fill="#FED402" points="432.9,37.6 292.3,242.6 325.8,262 433,37.7 				"/>
			</g>
		</g>
	</g>
	<circle fill="#FFFFFF" cx="288.8" cy="287.4" r="52.3"/>
</g>
</svg>
